<svg xmlns="http://www.w3.org/2000/svg" width="320" height="220" viewBox="0 0 320 220"><defs><radialGradient id="bg"><stop stop-color="#287fab"/><stop offset="1" stop-color="#18364c"/></radialGradient></defs><rect width="320" height="220" fill="url(#bg)"/><rect x="12" y="12" width="296" height="196" rx="22" fill="none" stroke="#ffdd9b" opacity=".35"/><g transform="translate(48 35) rotate(-14 40 60)"><rect x="3" y="5" width="80" height="115" rx="9" fill="#082330" opacity=".25"/><rect width="80" height="115" rx="9" fill="#fff8e9" stroke="#e4cf9d"/><text x="10" y="24" font-family="Georgia" font-weight="bold" font-size="22" fill="#23384d">A</text><text x="40" y="80" text-anchor="middle" font-size="50" fill="#23384d">♠</text></g><g transform="translate(110 26) rotate(0 40 60)"><rect x="3" y="5" width="80" height="115" rx="9" fill="#082330" opacity=".25"/><rect width="80" height="115" rx="9" fill="#fff8e9" stroke="#e4cf9d"/><text x="10" y="24" font-family="Georgia" font-weight="bold" font-size="22" fill="#c34f5d">K</text><text x="40" y="80" text-anchor="middle" font-size="50" fill="#c34f5d">♥</text></g><g transform="translate(173 35) rotate(14 40 60)"><rect x="3" y="5" width="80" height="115" rx="9" fill="#082330" opacity=".25"/><rect width="80" height="115" rx="9" fill="#fff8e9" stroke="#e4cf9d"/><text x="10" y="24" font-family="Georgia" font-weight="bold" font-size="22" fill="#23384d">Q</text><text x="40" y="80" text-anchor="middle" font-size="50" fill="#23384d">♣</text></g></svg>